{
	"asset":{
		"generator":"Khronos glTF Blender I/O v4.0.44",
		"version":"2.0"
	},
	"scene":0,
	"scenes":[
		{
			"name":"Scene",
			"nodes":[
				0
			]
		}
	],
	"nodes":[
		{
			"mesh":0,
			"name":"Player.001",
			"scale":[
				0.3322922885417938,
				0.3322922885417938,
				0.3322922885417938
			],
			"translation":[
				0.0012558698654174805,
				-0.762503981590271,
				0.042167991399765015
			]
		}
	],
	"materials":[
		{
			"doubleSided":true,
			"name":"Skin.001",
			"pbrMetallicRoughness":{
				"metallicFactor":0,
				"roughnessFactor":0.5
			}
		},
		{
			"doubleSided":true,
			"name":"Hose.001",
			"pbrMetallicRoughness":{
				"baseColorFactor":[
					0.026755983009934425,
					0.027122244238853455,
					0.027487896382808685,
					1
				],
				"metallicFactor":0,
				"roughnessFactor":0.5
			}
		},
		{
			"doubleSided":true,
			"name":"Shirt.001",
			"pbrMetallicRoughness":{
				"baseColorFactor":[
					0,
					0,
					0,
					1
				],
				"metallicFactor":0,
				"roughnessFactor":0.5
			}
		},
		{
			"doubleSided":true,
			"name":"Material.001",
			"pbrMetallicRoughness":{
				"metallicFactor":0.125,
				"roughnessFactor":0.5
			}
		}
	],
	"meshes":[
		{
			"name":"Icosphere.001",
			"primitives":[
				{
					"attributes":{
						"POSITION":0,
						"NORMAL":1,
						"TEXCOORD_0":2
					},
					"indices":3,
					"material":0
				},
				{
					"attributes":{
						"POSITION":4,
						"NORMAL":5,
						"TEXCOORD_0":6
					},
					"indices":7,
					"material":1
				},
				{
					"attributes":{
						"POSITION":8,
						"NORMAL":9,
						"TEXCOORD_0":10
					},
					"indices":11,
					"material":2
				},
				{
					"attributes":{
						"POSITION":12,
						"NORMAL":13,
						"TEXCOORD_0":14
					},
					"indices":15,
					"material":3
				}
			]
		}
	],
	"accessors":[
		{
			"bufferView":0,
			"componentType":5126,
			"count":1896,
			"max":[
				5.708709716796875,
				10.638444900512695,
				2.9444873332977295
			],
			"min":[
				-5.708709716796875,
				-1.4007600545883179,
				-1.1745295524597168
			],
			"type":"VEC3"
		},
		{
			"bufferView":1,
			"componentType":5126,
			"count":1896,
			"type":"VEC3"
		},
		{
			"bufferView":2,
			"componentType":5126,
			"count":1896,
			"type":"VEC2"
		},
		{
			"bufferView":3,
			"componentType":5123,
			"count":2718,
			"type":"SCALAR"
		},
		{
			"bufferView":4,
			"componentType":5126,
			"count":2721,
			"max":[
				2.6380186080932617,
				0.6163288354873657,
				1.925815224647522
			],
			"min":[
				-2.626276969909668,
				-4.727713584899902,
				-2.574063777923584
			],
			"type":"VEC3"
		},
		{
			"bufferView":5,
			"componentType":5126,
			"count":2721,
			"type":"VEC3"
		},
		{
			"bufferView":6,
			"componentType":5126,
			"count":2721,
			"type":"VEC2"
		},
		{
			"bufferView":7,
			"componentType":5123,
			"count":3255,
			"type":"SCALAR"
		},
		{
			"bufferView":8,
			"componentType":5126,
			"count":1104,
			"max":[
				2.6835684776306152,
				5.857876777648926,
				2.188599109649658
			],
			"min":[
				-2.6835684776306152,
				-0.194379061460495,
				-2.611696720123291
			],
			"type":"VEC3"
		},
		{
			"bufferView":9,
			"componentType":5126,
			"count":1104,
			"type":"VEC3"
		},
		{
			"bufferView":10,
			"componentType":5126,
			"count":1104,
			"type":"VEC2"
		},
		{
			"bufferView":11,
			"componentType":5123,
			"count":1632,
			"type":"SCALAR"
		},
		{
			"bufferView":12,
			"componentType":5126,
			"count":468,
			"max":[
				1.494797945022583,
				8.796648979187012,
				3.267082691192627
			],
			"min":[
				-1.494797945022583,
				7.467909336090088,
				1.968335747718811
			],
			"type":"VEC3"
		},
		{
			"bufferView":13,
			"componentType":5126,
			"count":468,
			"type":"VEC3"
		},
		{
			"bufferView":14,
			"componentType":5126,
			"count":468,
			"type":"VEC2"
		},
		{
			"bufferView":15,
			"componentType":5123,
			"count":468,
			"type":"SCALAR"
		}
	],
	"bufferViews":[
		{
			"buffer":0,
			"byteLength":22752,
			"byteOffset":0,
			"target":34962
		},
		{
			"buffer":0,
			"byteLength":22752,
			"byteOffset":22752,
			"target":34962
		},
		{
			"buffer":0,
			"byteLength":15168,
			"byteOffset":45504,
			"target":34962
		},
		{
			"buffer":0,
			"byteLength":5436,
			"byteOffset":60672,
			"target":34963
		},
		{
			"buffer":0,
			"byteLength":32652,
			"byteOffset":66108,
			"target":34962
		},
		{
			"buffer":0,
			"byteLength":32652,
			"byteOffset":98760,
			"target":34962
		},
		{
			"buffer":0,
			"byteLength":21768,
			"byteOffset":131412,
			"target":34962
		},
		{
			"buffer":0,
			"byteLength":6510,
			"byteOffset":153180,
			"target":34963
		},
		{
			"buffer":0,
			"byteLength":13248,
			"byteOffset":159692,
			"target":34962
		},
		{
			"buffer":0,
			"byteLength":13248,
			"byteOffset":172940,
			"target":34962
		},
		{
			"buffer":0,
			"byteLength":8832,
			"byteOffset":186188,
			"target":34962
		},
		{
			"buffer":0,
			"byteLength":3264,
			"byteOffset":195020,
			"target":34963
		},
		{
			"buffer":0,
			"byteLength":5616,
			"byteOffset":198284,
			"target":34962
		},
		{
			"buffer":0,
			"byteLength":5616,
			"byteOffset":203900,
			"target":34962
		},
		{
			"buffer":0,
			"byteLength":3744,
			"byteOffset":209516,
			"target":34962
		},
		{
			"buffer":0,
			"byteLength":936,
			"byteOffset":213260,
			"target":34963
		}
	],
	"buffers":[
		{
			"byteLength":214196,
			"uri":"garage%20musician%20model.bin"
		}
	]
}
