{
	"asset":{
		"generator":"Khronos glTF Blender I/O v4.0.44",
		"version":"2.0"
	},
	"scene":0,
	"scenes":[
		{
			"name":"Scene",
			"nodes":[
				14,
				15
			]
		}
	],
	"nodes":[
		{
			"name":"Bone.002",
			"rotation":[
				0.24169667065143585,
				-7.005833223662841e-15,
				1.5795523339957396e-15,
				0.9703518152236938
			],
			"scale":[
				1,
				1.0000001192092896,
				1.0000001192092896
			],
			"translation":[
				1.4889251025954498e-22,
				0.22612982988357544,
				4.423782229423523e-09
			]
		},
		{
			"children":[
				0
			],
			"name":"Bone.001",
			"rotation":[
				-0.15018904209136963,
				-1.178571054083477e-07,
				-1.7903925453310876e-08,
				0.9886572957038879
			],
			"scale":[
				0.9999999403953552,
				0.9999998807907104,
				0.9999999403953552
			],
			"translation":[
				6.593185876814858e-16,
				1.003836750984192,
				-3.725290298461914e-09
			]
		},
		{
			"name":"Bone.008",
			"rotation":[
				0.44605401158332825,
				-0.012891150079667568,
				-0.41206976771354675,
				0.7943980097770691
			],
			"scale":[
				0.9999999403953552,
				0.9999999403953552,
				0.9999999403953552
			],
			"translation":[
				8.195638656616211e-08,
				0.44329312443733215,
				-1.1175870895385742e-08
			]
		},
		{
			"children":[
				2
			],
			"name":"Bone.007",
			"rotation":[
				0.01227102242410183,
				0.12993718683719635,
				-0.31735020875930786,
				0.939284086227417
			],
			"scale":[
				1,
				1.0000001192092896,
				1.0000001192092896
			],
			"translation":[
				3.166496753692627e-08,
				0.44734445214271545,
				1.1175870895385742e-08
			]
		},
		{
			"children":[
				3
			],
			"name":"Bone.003",
			"rotation":[
				-0.11737604439258575,
				0.0875372663140297,
				-0.7062381505966187,
				0.6926671862602234
			],
			"scale":[
				0.9999999403953552,
				0.9999998807907104,
				1
			],
			"translation":[
				6.593185876814858e-16,
				1.003836750984192,
				-3.725290298461914e-09
			]
		},
		{
			"name":"Bone.006",
			"rotation":[
				0.41703081130981445,
				0.007276453077793121,
				0.38966307044029236,
				0.8210937976837158
			],
			"scale":[
				0.9999998807907104,
				0.9999997615814209,
				0.9999999403953552
			],
			"translation":[
				3.632158041000366e-08,
				0.424048513174057,
				2.2351741790771484e-08
			]
		},
		{
			"children":[
				5
			],
			"name":"Bone.005",
			"rotation":[
				0.024056456983089447,
				-0.11596855521202087,
				0.33837395906448364,
				0.9335286021232605
			],
			"scale":[
				0.9999999403953552,
				0.9999999403953552,
				1
			],
			"translation":[
				-3.282912075519562e-08,
				0.44734445214271545,
				1.1175870895385742e-08
			]
		},
		{
			"children":[
				6
			],
			"name":"Bone.004",
			"rotation":[
				-0.11737632006406784,
				-0.08753742277622223,
				0.7062380909919739,
				0.6926671862602234
			],
			"scale":[
				0.9999999403953552,
				0.9999999403953552,
				1
			],
			"translation":[
				6.593185876814858e-16,
				1.003836750984192,
				-3.725290298461914e-09
			]
		},
		{
			"name":"Bone.010",
			"rotation":[
				-0.7046974301338196,
				0.05832260474562645,
				-0.05832250788807869,
				0.7046974897384644
			],
			"scale":[
				1,
				1.0000001192092896,
				1.0000001192092896
			],
			"translation":[
				8.290971464930408e-09,
				0.2606332004070282,
				-1.685729245082257e-08
			]
		},
		{
			"children":[
				8
			],
			"name":"Bone.009",
			"rotation":[
				-0.4765995144844055,
				0.562606692314148,
				0.5154348611831665,
				0.4366389214992523
			],
			"scale":[
				1.0000001192092896,
				1,
				1
			],
			"translation":[
				-1.9984014443252818e-15,
				-4.330649971961975e-08,
				3.725290298461914e-09
			]
		},
		{
			"name":"Bone.012",
			"rotation":[
				-0.7046973705291748,
				-0.058322593569755554,
				0.05832250788807869,
				0.7046975493431091
			],
			"translation":[
				9.605006567880991e-09,
				0.2606331408023834,
				-1.5046644818994537e-08
			]
		},
		{
			"children":[
				10
			],
			"name":"Bone.011",
			"rotation":[
				-0.47659945487976074,
				-0.5626067519187927,
				-0.515434980392456,
				0.4366387724876404
			],
			"scale":[
				0.9999999403953552,
				0.9999998807907104,
				1
			],
			"translation":[
				-1.9984014443252818e-15,
				-4.330649971961975e-08,
				3.725290298461914e-09
			]
		},
		{
			"children":[
				1,
				4,
				7,
				9,
				11
			],
			"name":"Bone",
			"rotation":[
				0.0437152162194252,
				1.1909531139053797e-07,
				5.2112634207901465e-09,
				0.9990440011024475
			],
			"scale":[
				0.9999999403953552,
				0.9999998807907104,
				0.9999998807907104
			],
			"translation":[
				0,
				0,
				-0.042847808450460434
			]
		},
		{
			"mesh":0,
			"name":"Player.001",
			"skin":0
		},
		{
			"children":[
				13,
				12
			],
			"name":"Armature",
			"scale":[
				2.333840847015381,
				2.333840847015381,
				2.333840847015381
			],
			"translation":[
				0,
				-1.3546617031097412,
				0
			]
		},
		{
			"mesh":1,
			"name":"Torus.002",
			"rotation":[
				0.5580439567565918,
				0,
				0,
				0.8298115134239197
			],
			"scale":[
				0.06652888655662537,
				0.18537233769893646,
				0.06652889400720596
			],
			"translation":[
				0,
				-0.15314830839633942,
				1.7312417030334473
			]
		}
	],
	"animations":[
		{
			"channels":[
				{
					"sampler":0,
					"target":{
						"node":12,
						"path":"translation"
					}
				},
				{
					"sampler":1,
					"target":{
						"node":12,
						"path":"rotation"
					}
				},
				{
					"sampler":2,
					"target":{
						"node":1,
						"path":"translation"
					}
				},
				{
					"sampler":3,
					"target":{
						"node":1,
						"path":"rotation"
					}
				},
				{
					"sampler":4,
					"target":{
						"node":0,
						"path":"translation"
					}
				},
				{
					"sampler":5,
					"target":{
						"node":0,
						"path":"rotation"
					}
				},
				{
					"sampler":6,
					"target":{
						"node":4,
						"path":"translation"
					}
				},
				{
					"sampler":7,
					"target":{
						"node":4,
						"path":"rotation"
					}
				},
				{
					"sampler":8,
					"target":{
						"node":3,
						"path":"translation"
					}
				},
				{
					"sampler":9,
					"target":{
						"node":3,
						"path":"rotation"
					}
				},
				{
					"sampler":10,
					"target":{
						"node":2,
						"path":"translation"
					}
				},
				{
					"sampler":11,
					"target":{
						"node":2,
						"path":"rotation"
					}
				},
				{
					"sampler":12,
					"target":{
						"node":7,
						"path":"translation"
					}
				},
				{
					"sampler":13,
					"target":{
						"node":7,
						"path":"rotation"
					}
				},
				{
					"sampler":14,
					"target":{
						"node":6,
						"path":"translation"
					}
				},
				{
					"sampler":15,
					"target":{
						"node":6,
						"path":"rotation"
					}
				},
				{
					"sampler":16,
					"target":{
						"node":5,
						"path":"translation"
					}
				},
				{
					"sampler":17,
					"target":{
						"node":5,
						"path":"rotation"
					}
				},
				{
					"sampler":18,
					"target":{
						"node":9,
						"path":"translation"
					}
				},
				{
					"sampler":19,
					"target":{
						"node":9,
						"path":"rotation"
					}
				},
				{
					"sampler":20,
					"target":{
						"node":8,
						"path":"translation"
					}
				},
				{
					"sampler":21,
					"target":{
						"node":8,
						"path":"rotation"
					}
				},
				{
					"sampler":22,
					"target":{
						"node":11,
						"path":"translation"
					}
				},
				{
					"sampler":23,
					"target":{
						"node":11,
						"path":"rotation"
					}
				},
				{
					"sampler":24,
					"target":{
						"node":10,
						"path":"translation"
					}
				},
				{
					"sampler":25,
					"target":{
						"node":10,
						"path":"rotation"
					}
				}
			],
			"name":"Klarinette",
			"samplers":[
				{
					"input":33,
					"interpolation":"LINEAR",
					"output":34
				},
				{
					"input":33,
					"interpolation":"LINEAR",
					"output":35
				},
				{
					"input":33,
					"interpolation":"LINEAR",
					"output":36
				},
				{
					"input":33,
					"interpolation":"LINEAR",
					"output":37
				},
				{
					"input":33,
					"interpolation":"LINEAR",
					"output":38
				},
				{
					"input":33,
					"interpolation":"LINEAR",
					"output":39
				},
				{
					"input":33,
					"interpolation":"LINEAR",
					"output":40
				},
				{
					"input":33,
					"interpolation":"LINEAR",
					"output":41
				},
				{
					"input":33,
					"interpolation":"LINEAR",
					"output":42
				},
				{
					"input":33,
					"interpolation":"LINEAR",
					"output":43
				},
				{
					"input":33,
					"interpolation":"LINEAR",
					"output":44
				},
				{
					"input":33,
					"interpolation":"LINEAR",
					"output":45
				},
				{
					"input":33,
					"interpolation":"LINEAR",
					"output":46
				},
				{
					"input":33,
					"interpolation":"LINEAR",
					"output":47
				},
				{
					"input":33,
					"interpolation":"LINEAR",
					"output":48
				},
				{
					"input":33,
					"interpolation":"LINEAR",
					"output":49
				},
				{
					"input":33,
					"interpolation":"LINEAR",
					"output":50
				},
				{
					"input":33,
					"interpolation":"LINEAR",
					"output":51
				},
				{
					"input":33,
					"interpolation":"LINEAR",
					"output":52
				},
				{
					"input":33,
					"interpolation":"LINEAR",
					"output":53
				},
				{
					"input":33,
					"interpolation":"LINEAR",
					"output":54
				},
				{
					"input":33,
					"interpolation":"LINEAR",
					"output":55
				},
				{
					"input":33,
					"interpolation":"LINEAR",
					"output":56
				},
				{
					"input":33,
					"interpolation":"LINEAR",
					"output":57
				},
				{
					"input":33,
					"interpolation":"LINEAR",
					"output":58
				},
				{
					"input":33,
					"interpolation":"LINEAR",
					"output":59
				}
			]
		}
	],
	"materials":[
		{
			"doubleSided":true,
			"name":"Skin.003",
			"pbrMetallicRoughness":{
				"metallicFactor":0,
				"roughnessFactor":0.5
			}
		},
		{
			"doubleSided":true,
			"name":"Hose.003",
			"pbrMetallicRoughness":{
				"baseColorFactor":[
					0.026755983009934425,
					0.027122244238853455,
					0.027487896382808685,
					1
				],
				"metallicFactor":0,
				"roughnessFactor":0.5
			}
		},
		{
			"doubleSided":true,
			"name":"Shirt.003",
			"pbrMetallicRoughness":{
				"baseColorFactor":[
					0,
					0,
					0,
					1
				],
				"metallicFactor":0,
				"roughnessFactor":0.5
			}
		},
		{
			"doubleSided":true,
			"name":"Material.005",
			"pbrMetallicRoughness":{
				"metallicFactor":0.125,
				"roughnessFactor":0.5
			}
		},
		{
			"doubleSided":true,
			"name":"Material.001",
			"pbrMetallicRoughness":{
				"baseColorTexture":{
					"index":0
				},
				"metallicFactor":0,
				"roughnessFactor":0.5
			}
		},
		{
			"doubleSided":true,
			"name":"Material.002",
			"pbrMetallicRoughness":{
				"baseColorTexture":{
					"index":1
				},
				"metallicFactor":0,
				"roughnessFactor":0.5
			}
		}
	],
	"meshes":[
		{
			"name":"Icosphere.001",
			"primitives":[
				{
					"attributes":{
						"POSITION":0,
						"NORMAL":1,
						"TEXCOORD_0":2,
						"JOINTS_0":3,
						"WEIGHTS_0":4
					},
					"indices":5,
					"material":0
				},
				{
					"attributes":{
						"POSITION":6,
						"NORMAL":7,
						"TEXCOORD_0":8,
						"JOINTS_0":9,
						"WEIGHTS_0":10
					},
					"indices":11,
					"material":1
				},
				{
					"attributes":{
						"POSITION":12,
						"NORMAL":13,
						"TEXCOORD_0":14,
						"JOINTS_0":15,
						"WEIGHTS_0":16
					},
					"indices":17,
					"material":2
				},
				{
					"attributes":{
						"POSITION":18,
						"NORMAL":19,
						"TEXCOORD_0":20,
						"JOINTS_0":21,
						"WEIGHTS_0":22
					},
					"indices":23,
					"material":3
				}
			]
		},
		{
			"name":"Torus.002",
			"primitives":[
				{
					"attributes":{
						"POSITION":25,
						"NORMAL":26,
						"TEXCOORD_0":27
					},
					"indices":28,
					"material":4
				},
				{
					"attributes":{
						"POSITION":29,
						"NORMAL":30,
						"TEXCOORD_0":31
					},
					"indices":32,
					"material":5
				}
			]
		}
	],
	"textures":[
		{
			"sampler":0,
			"source":0
		},
		{
			"sampler":0,
			"source":1
		}
	],
	"images":[
		{
			"mimeType":"image/png",
			"name":"goldenstuff",
			"uri":"textures/goldenstuff.png"
		},
		{
			"mimeType":"image/png",
			"name":"wood",
			"uri":"textures/wood.png"
		}
	],
	"skins":[
		{
			"inverseBindMatrices":24,
			"joints":[
				12,
				1,
				0,
				4,
				3,
				2,
				7,
				6,
				5,
				9,
				8,
				11,
				10
			],
			"name":"Armature"
		}
	],
	"accessors":[
		{
			"bufferView":0,
			"componentType":5126,
			"count":1966,
			"max":[
				1.8982161283493042,
				2.772569417953491,
				1.0205984115600586
			],
			"min":[
				-1.8957043886184692,
				-2.546933174133301,
				-0.3481191098690033
			],
			"type":"VEC3"
		},
		{
			"bufferView":1,
			"componentType":5126,
			"count":1966,
			"type":"VEC3"
		},
		{
			"bufferView":2,
			"componentType":5126,
			"count":1966,
			"type":"VEC2"
		},
		{
			"bufferView":3,
			"componentType":5121,
			"count":1966,
			"type":"VEC4"
		},
		{
			"bufferView":4,
			"componentType":5126,
			"count":1966,
			"type":"VEC4"
		},
		{
			"bufferView":5,
			"componentType":5123,
			"count":2820,
			"type":"SCALAR"
		},
		{
			"bufferView":6,
			"componentType":5126,
			"count":2721,
			"max":[
				0.8778491020202637,
				-0.5577025413513184,
				0.6821015477180481
			],
			"min":[
				-0.8714357018470764,
				-2.333486557006836,
				-0.8131735324859619
			],
			"type":"VEC3"
		},
		{
			"bufferView":7,
			"componentType":5126,
			"count":2721,
			"type":"VEC3"
		},
		{
			"bufferView":8,
			"componentType":5126,
			"count":2721,
			"type":"VEC2"
		},
		{
			"bufferView":9,
			"componentType":5121,
			"count":2721,
			"type":"VEC4"
		},
		{
			"bufferView":10,
			"componentType":5126,
			"count":2721,
			"type":"VEC4"
		},
		{
			"bufferView":11,
			"componentType":5123,
			"count":3255,
			"type":"SCALAR"
		},
		{
			"bufferView":12,
			"componentType":5126,
			"count":1104,
			"max":[
				0.8929849863052368,
				1.184023380279541,
				0.7694225907325745
			],
			"min":[
				-0.8904732465744019,
				-0.827094554901123,
				-0.8256787061691284
			],
			"type":"VEC3"
		},
		{
			"bufferView":13,
			"componentType":5126,
			"count":1104,
			"type":"VEC3"
		},
		{
			"bufferView":14,
			"componentType":5126,
			"count":1104,
			"type":"VEC2"
		},
		{
			"bufferView":15,
			"componentType":5121,
			"count":1104,
			"type":"VEC4"
		},
		{
			"bufferView":16,
			"componentType":5126,
			"count":1104,
			"type":"VEC4"
		},
		{
			"bufferView":17,
			"componentType":5123,
			"count":1632,
			"type":"SCALAR"
		},
		{
			"bufferView":18,
			"componentType":5126,
			"count":468,
			"max":[
				0.4979656934738159,
				2.1605546474456787,
				1.1277943849563599
			],
			"min":[
				-0.49545395374298096,
				1.7190247774124146,
				0.6962307691574097
			],
			"type":"VEC3"
		},
		{
			"bufferView":19,
			"componentType":5126,
			"count":468,
			"type":"VEC3"
		},
		{
			"bufferView":20,
			"componentType":5126,
			"count":468,
			"type":"VEC2"
		},
		{
			"bufferView":21,
			"componentType":5121,
			"count":468,
			"type":"VEC4"
		},
		{
			"bufferView":22,
			"componentType":5126,
			"count":468,
			"type":"VEC4"
		},
		{
			"bufferView":23,
			"componentType":5123,
			"count":468,
			"type":"SCALAR"
		},
		{
			"bufferView":24,
			"componentType":5126,
			"count":13,
			"type":"MAT4"
		},
		{
			"bufferView":25,
			"componentType":5126,
			"count":10416,
			"max":[
				2.5814030170440674,
				0.3108763098716736,
				12.1243896484375
			],
			"min":[
				-2.145371913909912,
				-0.8727434873580933,
				-13.230817794799805
			],
			"type":"VEC3"
		},
		{
			"bufferView":26,
			"componentType":5126,
			"count":10416,
			"type":"VEC3"
		},
		{
			"bufferView":27,
			"componentType":5126,
			"count":10416,
			"type":"VEC2"
		},
		{
			"bufferView":28,
			"componentType":5123,
			"count":15846,
			"type":"SCALAR"
		},
		{
			"bufferView":29,
			"componentType":5126,
			"count":3648,
			"max":[
				4.150414943695068,
				0.9176825284957886,
				20.39603042602539
			],
			"min":[
				-4.150381565093994,
				-2.0614185333251953,
				-26.049560546875
			],
			"type":"VEC3"
		},
		{
			"bufferView":30,
			"componentType":5126,
			"count":3648,
			"type":"VEC3"
		},
		{
			"bufferView":31,
			"componentType":5126,
			"count":3648,
			"type":"VEC2"
		},
		{
			"bufferView":32,
			"componentType":5123,
			"count":5748,
			"type":"SCALAR"
		},
		{
			"bufferView":33,
			"componentType":5126,
			"count":13,
			"max":[
				8
			],
			"min":[
				0.03333333333333333
			],
			"type":"SCALAR"
		},
		{
			"bufferView":34,
			"componentType":5126,
			"count":13,
			"type":"VEC3"
		},
		{
			"bufferView":35,
			"componentType":5126,
			"count":13,
			"type":"VEC4"
		},
		{
			"bufferView":36,
			"componentType":5126,
			"count":13,
			"type":"VEC3"
		},
		{
			"bufferView":37,
			"componentType":5126,
			"count":13,
			"type":"VEC4"
		},
		{
			"bufferView":38,
			"componentType":5126,
			"count":13,
			"type":"VEC3"
		},
		{
			"bufferView":39,
			"componentType":5126,
			"count":13,
			"type":"VEC4"
		},
		{
			"bufferView":40,
			"componentType":5126,
			"count":13,
			"type":"VEC3"
		},
		{
			"bufferView":41,
			"componentType":5126,
			"count":13,
			"type":"VEC4"
		},
		{
			"bufferView":42,
			"componentType":5126,
			"count":13,
			"type":"VEC3"
		},
		{
			"bufferView":43,
			"componentType":5126,
			"count":13,
			"type":"VEC4"
		},
		{
			"bufferView":44,
			"componentType":5126,
			"count":13,
			"type":"VEC3"
		},
		{
			"bufferView":45,
			"componentType":5126,
			"count":13,
			"type":"VEC4"
		},
		{
			"bufferView":46,
			"componentType":5126,
			"count":13,
			"type":"VEC3"
		},
		{
			"bufferView":47,
			"componentType":5126,
			"count":13,
			"type":"VEC4"
		},
		{
			"bufferView":48,
			"componentType":5126,
			"count":13,
			"type":"VEC3"
		},
		{
			"bufferView":49,
			"componentType":5126,
			"count":13,
			"type":"VEC4"
		},
		{
			"bufferView":50,
			"componentType":5126,
			"count":13,
			"type":"VEC3"
		},
		{
			"bufferView":51,
			"componentType":5126,
			"count":13,
			"type":"VEC4"
		},
		{
			"bufferView":52,
			"componentType":5126,
			"count":13,
			"type":"VEC3"
		},
		{
			"bufferView":53,
			"componentType":5126,
			"count":13,
			"type":"VEC4"
		},
		{
			"bufferView":54,
			"componentType":5126,
			"count":13,
			"type":"VEC3"
		},
		{
			"bufferView":55,
			"componentType":5126,
			"count":13,
			"type":"VEC4"
		},
		{
			"bufferView":56,
			"componentType":5126,
			"count":13,
			"type":"VEC3"
		},
		{
			"bufferView":57,
			"componentType":5126,
			"count":13,
			"type":"VEC4"
		},
		{
			"bufferView":58,
			"componentType":5126,
			"count":13,
			"type":"VEC3"
		},
		{
			"bufferView":59,
			"componentType":5126,
			"count":13,
			"type":"VEC4"
		}
	],
	"bufferViews":[
		{
			"buffer":0,
			"byteLength":23592,
			"byteOffset":0,
			"target":34962
		},
		{
			"buffer":0,
			"byteLength":23592,
			"byteOffset":23592,
			"target":34962
		},
		{
			"buffer":0,
			"byteLength":15728,
			"byteOffset":47184,
			"target":34962
		},
		{
			"buffer":0,
			"byteLength":7864,
			"byteOffset":62912,
			"target":34962
		},
		{
			"buffer":0,
			"byteLength":31456,
			"byteOffset":70776,
			"target":34962
		},
		{
			"buffer":0,
			"byteLength":5640,
			"byteOffset":102232,
			"target":34963
		},
		{
			"buffer":0,
			"byteLength":32652,
			"byteOffset":107872,
			"target":34962
		},
		{
			"buffer":0,
			"byteLength":32652,
			"byteOffset":140524,
			"target":34962
		},
		{
			"buffer":0,
			"byteLength":21768,
			"byteOffset":173176,
			"target":34962
		},
		{
			"buffer":0,
			"byteLength":10884,
			"byteOffset":194944,
			"target":34962
		},
		{
			"buffer":0,
			"byteLength":43536,
			"byteOffset":205828,
			"target":34962
		},
		{
			"buffer":0,
			"byteLength":6510,
			"byteOffset":249364,
			"target":34963
		},
		{
			"buffer":0,
			"byteLength":13248,
			"byteOffset":255876,
			"target":34962
		},
		{
			"buffer":0,
			"byteLength":13248,
			"byteOffset":269124,
			"target":34962
		},
		{
			"buffer":0,
			"byteLength":8832,
			"byteOffset":282372,
			"target":34962
		},
		{
			"buffer":0,
			"byteLength":4416,
			"byteOffset":291204,
			"target":34962
		},
		{
			"buffer":0,
			"byteLength":17664,
			"byteOffset":295620,
			"target":34962
		},
		{
			"buffer":0,
			"byteLength":3264,
			"byteOffset":313284,
			"target":34963
		},
		{
			"buffer":0,
			"byteLength":5616,
			"byteOffset":316548,
			"target":34962
		},
		{
			"buffer":0,
			"byteLength":5616,
			"byteOffset":322164,
			"target":34962
		},
		{
			"buffer":0,
			"byteLength":3744,
			"byteOffset":327780,
			"target":34962
		},
		{
			"buffer":0,
			"byteLength":1872,
			"byteOffset":331524,
			"target":34962
		},
		{
			"buffer":0,
			"byteLength":7488,
			"byteOffset":333396,
			"target":34962
		},
		{
			"buffer":0,
			"byteLength":936,
			"byteOffset":340884,
			"target":34963
		},
		{
			"buffer":0,
			"byteLength":832,
			"byteOffset":341820
		},
		{
			"buffer":0,
			"byteLength":124992,
			"byteOffset":342652,
			"target":34962
		},
		{
			"buffer":0,
			"byteLength":124992,
			"byteOffset":467644,
			"target":34962
		},
		{
			"buffer":0,
			"byteLength":83328,
			"byteOffset":592636,
			"target":34962
		},
		{
			"buffer":0,
			"byteLength":31692,
			"byteOffset":675964,
			"target":34963
		},
		{
			"buffer":0,
			"byteLength":43776,
			"byteOffset":707656,
			"target":34962
		},
		{
			"buffer":0,
			"byteLength":43776,
			"byteOffset":751432,
			"target":34962
		},
		{
			"buffer":0,
			"byteLength":29184,
			"byteOffset":795208,
			"target":34962
		},
		{
			"buffer":0,
			"byteLength":11496,
			"byteOffset":824392,
			"target":34963
		},
		{
			"buffer":0,
			"byteLength":52,
			"byteOffset":835888
		},
		{
			"buffer":0,
			"byteLength":156,
			"byteOffset":835940
		},
		{
			"buffer":0,
			"byteLength":208,
			"byteOffset":836096
		},
		{
			"buffer":0,
			"byteLength":156,
			"byteOffset":836304
		},
		{
			"buffer":0,
			"byteLength":208,
			"byteOffset":836460
		},
		{
			"buffer":0,
			"byteLength":156,
			"byteOffset":836668
		},
		{
			"buffer":0,
			"byteLength":208,
			"byteOffset":836824
		},
		{
			"buffer":0,
			"byteLength":156,
			"byteOffset":837032
		},
		{
			"buffer":0,
			"byteLength":208,
			"byteOffset":837188
		},
		{
			"buffer":0,
			"byteLength":156,
			"byteOffset":837396
		},
		{
			"buffer":0,
			"byteLength":208,
			"byteOffset":837552
		},
		{
			"buffer":0,
			"byteLength":156,
			"byteOffset":837760
		},
		{
			"buffer":0,
			"byteLength":208,
			"byteOffset":837916
		},
		{
			"buffer":0,
			"byteLength":156,
			"byteOffset":838124
		},
		{
			"buffer":0,
			"byteLength":208,
			"byteOffset":838280
		},
		{
			"buffer":0,
			"byteLength":156,
			"byteOffset":838488
		},
		{
			"buffer":0,
			"byteLength":208,
			"byteOffset":838644
		},
		{
			"buffer":0,
			"byteLength":156,
			"byteOffset":838852
		},
		{
			"buffer":0,
			"byteLength":208,
			"byteOffset":839008
		},
		{
			"buffer":0,
			"byteLength":156,
			"byteOffset":839216
		},
		{
			"buffer":0,
			"byteLength":208,
			"byteOffset":839372
		},
		{
			"buffer":0,
			"byteLength":156,
			"byteOffset":839580
		},
		{
			"buffer":0,
			"byteLength":208,
			"byteOffset":839736
		},
		{
			"buffer":0,
			"byteLength":156,
			"byteOffset":839944
		},
		{
			"buffer":0,
			"byteLength":208,
			"byteOffset":840100
		},
		{
			"buffer":0,
			"byteLength":156,
			"byteOffset":840308
		},
		{
			"buffer":0,
			"byteLength":208,
			"byteOffset":840464
		}
	],
	"samplers":[
		{
			"magFilter":9729,
			"minFilter":9987
		}
	],
	"buffers":[
		{
			"byteLength":840672,
			"uri":"garage%20musician%20Klarinette.bin"
		}
	]
}
