{
	"asset":{
		"generator":"Khronos glTF Blender I/O v4.0.44",
		"version":"2.0"
	},
	"scene":0,
	"scenes":[
		{
			"name":"Scene",
			"nodes":[
				14,
				15
			]
		}
	],
	"nodes":[
		{
			"name":"Bone.002",
			"rotation":[
				0.24169667065143585,
				-7.005833223662841e-15,
				1.5795523339957396e-15,
				0.9703518152236938
			],
			"scale":[
				1,
				1.0000001192092896,
				1.0000001192092896
			],
			"translation":[
				1.4889251025954498e-22,
				0.22612982988357544,
				4.423782229423523e-09
			]
		},
		{
			"children":[
				0
			],
			"name":"Bone.001",
			"rotation":[
				-0.15018904209136963,
				-1.178571054083477e-07,
				-1.7903925453310876e-08,
				0.9886572957038879
			],
			"scale":[
				0.9999999403953552,
				0.9999998807907104,
				0.9999999403953552
			],
			"translation":[
				6.593185876814858e-16,
				1.003836750984192,
				-3.725290298461914e-09
			]
		},
		{
			"name":"Bone.008",
			"rotation":[
				0.3736293315887451,
				0.028694458305835724,
				-0.08675537258386612,
				0.923066258430481
			],
			"scale":[
				1,
				0.9999999403953552,
				0.9999999403953552
			],
			"translation":[
				-6.705522537231445e-08,
				0.33730918169021606,
				0
			]
		},
		{
			"children":[
				2
			],
			"name":"Bone.007",
			"rotation":[
				0.015068860724568367,
				0.11258269101381302,
				-0.530136227607727,
				0.8402699828147888
			],
			"scale":[
				1.0000001192092896,
				1.0000001192092896,
				1.0000001192092896
			],
			"translation":[
				3.166496753692627e-08,
				0.44734445214271545,
				1.1175870895385742e-08
			]
		},
		{
			"children":[
				3
			],
			"name":"Bone.003",
			"rotation":[
				-0.11737604439258575,
				0.0875372663140297,
				-0.7062381505966187,
				0.6926671862602234
			],
			"scale":[
				0.9999999403953552,
				0.9999998807907104,
				1
			],
			"translation":[
				6.593185876814858e-16,
				1.003836750984192,
				-3.725290298461914e-09
			]
		},
		{
			"name":"Bone.006",
			"rotation":[
				0.37362921237945557,
				-0.028694121167063713,
				0.08675561845302582,
				0.923066258430481
			],
			"scale":[
				1,
				0.9999998807907104,
				0.9999998807907104
			],
			"translation":[
				7.171183824539185e-08,
				0.3373090922832489,
				-9.313225746154785e-09
			]
		},
		{
			"children":[
				5
			],
			"name":"Bone.005",
			"rotation":[
				0.015068771317601204,
				-0.11258266121149063,
				0.530136227607727,
				0.8402699828147888
			],
			"scale":[
				1,
				1,
				1.0000001192092896
			],
			"translation":[
				-3.282912075519562e-08,
				0.44734445214271545,
				1.1175870895385742e-08
			]
		},
		{
			"children":[
				6
			],
			"name":"Bone.004",
			"rotation":[
				-0.11737632006406784,
				-0.08753742277622223,
				0.7062380909919739,
				0.6926671862602234
			],
			"scale":[
				0.9999999403953552,
				0.9999999403953552,
				1
			],
			"translation":[
				6.593185876814858e-16,
				1.003836750984192,
				-3.725290298461914e-09
			]
		},
		{
			"name":"Bone.010",
			"rotation":[
				-0.7046974301338196,
				0.05832260474562645,
				-0.05832250788807869,
				0.7046974897384644
			],
			"scale":[
				1,
				1.0000001192092896,
				1.0000001192092896
			],
			"translation":[
				8.290971464930408e-09,
				0.2606332004070282,
				-1.685729245082257e-08
			]
		},
		{
			"children":[
				8
			],
			"name":"Bone.009",
			"rotation":[
				-0.4765995144844055,
				0.562606692314148,
				0.5154348611831665,
				0.4366389214992523
			],
			"scale":[
				1.0000001192092896,
				1,
				1
			],
			"translation":[
				-1.9984014443252818e-15,
				-4.330649971961975e-08,
				3.725290298461914e-09
			]
		},
		{
			"name":"Bone.012",
			"rotation":[
				-0.7046973705291748,
				-0.058322593569755554,
				0.05832250788807869,
				0.7046975493431091
			],
			"translation":[
				9.605006567880991e-09,
				0.2606331408023834,
				-1.5046644818994537e-08
			]
		},
		{
			"children":[
				10
			],
			"name":"Bone.011",
			"rotation":[
				-0.47659945487976074,
				-0.5626067519187927,
				-0.515434980392456,
				0.4366387724876404
			],
			"scale":[
				0.9999999403953552,
				0.9999998807907104,
				1
			],
			"translation":[
				-1.9984014443252818e-15,
				-4.330649971961975e-08,
				3.725290298461914e-09
			]
		},
		{
			"children":[
				1,
				4,
				7,
				9,
				11
			],
			"name":"Bone",
			"rotation":[
				0.0437152162194252,
				1.1909531139053797e-07,
				5.2112634207901465e-09,
				0.9990440011024475
			],
			"scale":[
				0.9999999403953552,
				0.9999998807907104,
				0.9999998807907104
			],
			"translation":[
				0,
				0,
				-0.042847808450460434
			]
		},
		{
			"mesh":0,
			"name":"Player",
			"skin":0
		},
		{
			"children":[
				13,
				12
			],
			"name":"Armature",
			"scale":[
				2.333840847015381,
				2.333840847015381,
				2.333840847015381
			],
			"translation":[
				0,
				-1.3546617031097412,
				0
			]
		},
		{
			"mesh":1,
			"name":"Plane",
			"rotation":[
				-0.7071068286895752,
				0,
				0,
				0.7071068286895752
			],
			"scale":[
				0.7022504806518555,
				0.8470718860626221,
				0.8470718860626221
			],
			"translation":[
				0,
				2.004516124725342,
				1.1609487533569336
			]
		}
	],
	"materials":[
		{
			"doubleSided":true,
			"name":"Material.001",
			"pbrMetallicRoughness":{
				"baseColorTexture":{
					"index":0
				},
				"metallicFactor":0,
				"roughnessFactor":0.5
			}
		}
	],
	"meshes":[
		{
			"name":"Icosphere.002",
			"primitives":[
				{
					"attributes":{
						"POSITION":0,
						"NORMAL":1,
						"TEXCOORD_0":2,
						"JOINTS_0":3,
						"WEIGHTS_0":4
					},
					"indices":5,
					"material":0
				}
			]
		},
		{
			"name":"Plane",
			"primitives":[
				{
					"attributes":{
						"POSITION":7,
						"NORMAL":8,
						"TEXCOORD_0":9
					},
					"indices":10
				}
			]
		}
	],
	"textures":[
		{
			"sampler":0,
			"source":0
		}
	],
	"images":[
		{
			"mimeType":"image/png",
			"name":"Icosphere Base Color",
			"uri":"textures/Icosphere%20Base%20Color.png"
		}
	],
	"skins":[
		{
			"inverseBindMatrices":6,
			"joints":[
				12,
				1,
				0,
				4,
				3,
				2,
				7,
				6,
				5,
				9,
				8,
				11,
				10
			],
			"name":"Armature"
		}
	],
	"accessors":[
		{
			"bufferView":0,
			"componentType":5126,
			"count":21542,
			"max":[
				1.8957041501998901,
				2.772569417953491,
				1.0205984115600586
			],
			"min":[
				-1.8957043886184692,
				-2.733809232711792,
				-0.8699579238891602
			],
			"type":"VEC3"
		},
		{
			"bufferView":1,
			"componentType":5126,
			"count":21542,
			"type":"VEC3"
		},
		{
			"bufferView":2,
			"componentType":5126,
			"count":21542,
			"type":"VEC2"
		},
		{
			"bufferView":3,
			"componentType":5121,
			"count":21542,
			"type":"VEC4"
		},
		{
			"bufferView":4,
			"componentType":5126,
			"count":21542,
			"type":"VEC4"
		},
		{
			"bufferView":5,
			"componentType":5123,
			"count":23112,
			"type":"SCALAR"
		},
		{
			"bufferView":6,
			"componentType":5126,
			"count":13,
			"type":"MAT4"
		},
		{
			"bufferView":7,
			"componentType":5126,
			"count":4,
			"max":[
				1,
				0,
				1
			],
			"min":[
				-1,
				0,
				-1
			],
			"type":"VEC3"
		},
		{
			"bufferView":8,
			"componentType":5126,
			"count":4,
			"type":"VEC3"
		},
		{
			"bufferView":9,
			"componentType":5126,
			"count":4,
			"type":"VEC2"
		},
		{
			"bufferView":10,
			"componentType":5123,
			"count":6,
			"type":"SCALAR"
		}
	],
	"bufferViews":[
		{
			"buffer":0,
			"byteLength":258504,
			"byteOffset":0,
			"target":34962
		},
		{
			"buffer":0,
			"byteLength":258504,
			"byteOffset":258504,
			"target":34962
		},
		{
			"buffer":0,
			"byteLength":172336,
			"byteOffset":517008,
			"target":34962
		},
		{
			"buffer":0,
			"byteLength":86168,
			"byteOffset":689344,
			"target":34962
		},
		{
			"buffer":0,
			"byteLength":344672,
			"byteOffset":775512,
			"target":34962
		},
		{
			"buffer":0,
			"byteLength":46224,
			"byteOffset":1120184,
			"target":34963
		},
		{
			"buffer":0,
			"byteLength":832,
			"byteOffset":1166408
		},
		{
			"buffer":0,
			"byteLength":48,
			"byteOffset":1167240,
			"target":34962
		},
		{
			"buffer":0,
			"byteLength":48,
			"byteOffset":1167288,
			"target":34962
		},
		{
			"buffer":0,
			"byteLength":32,
			"byteOffset":1167336,
			"target":34962
		},
		{
			"buffer":0,
			"byteLength":12,
			"byteOffset":1167368,
			"target":34963
		}
	],
	"samplers":[
		{
			"magFilter":9729,
			"minFilter":9987
		}
	],
	"buffers":[
		{
			"byteLength":1167380,
			"uri":"garage%20musician%20default.bin"
		}
	]
}
