{
	"asset":{
		"generator":"Khronos glTF Blender I/O v4.0.44",
		"version":"2.0"
	},
	"scene":0,
	"scenes":[
		{
			"name":"Scene",
			"nodes":[
				0,
				1,
				2,
				3,
				4,
				5,
				6,
				7,
				8,
				9,
				10,
				11,
				12,
				13
			]
		}
	],
	"nodes":[
		{
			"mesh":0,
			"name":"grass",
			"scale":[
				40.49700164794922,
				1,
				67.55921173095703
			],
			"translation":[
				54.24041748046875,
				0.09719592332839966,
				24.191722869873047
			]
		},
		{
			"mesh":1,
			"name":"Wall",
			"translation":[
				34.078697204589844,
				-3.133920907974243,
				-24.17287826538086
			]
		},
		{
			"mesh":2,
			"name":"house",
			"scale":[
				15,
				10,
				1
			],
			"translation":[
				-0.29500094056129456,
				9.306219100952148,
				-1.461862564086914
			]
		},
		{
			"mesh":3,
			"name":"Plane",
			"rotation":[
				0,
				0,
				-0.7071066498756409,
				0.70710688829422
			],
			"scale":[
				1.762676477432251,
				1.762676477432251,
				4.094078540802002
			],
			"translation":[
				16.39828872680664,
				15.044852256774902,
				42.80949783325195
			]
		},
		{
			"mesh":4,
			"name":"Plane.001",
			"rotation":[
				0,
				0,
				-0.7071066498756409,
				0.70710688829422
			],
			"scale":[
				6.081504821777344,
				1,
				3.7057111263275146
			],
			"translation":[
				13.737151145935059,
				10.686976432800293,
				43.14667892456055
			]
		},
		{
			"mesh":5,
			"name":"Bush",
			"scale":[
				4.770712375640869,
				4.770712375640869,
				4.770712375640869
			],
			"translation":[
				29.76239585876465,
				3.048156976699829,
				26.921438217163086
			]
		},
		{
			"mesh":6,
			"name":"bush.001",
			"scale":[
				4.770712375640869,
				4.770712375640869,
				4.770712375640869
			],
			"translation":[
				36.62479782104492,
				3.048156976699829,
				23.729623794555664
			]
		},
		{
			"mesh":7,
			"name":"bush.002",
			"scale":[
				4.770712375640869,
				4.770712375640869,
				4.770712375640869
			],
			"translation":[
				46.99819564819336,
				3.048156976699829,
				25.40532684326172
			]
		},
		{
			"mesh":8,
			"name":"bush.003",
			"scale":[
				4.770712375640869,
				4.770712375640869,
				4.770712375640869
			],
			"translation":[
				25.373653411865234,
				3.048156976699829,
				62.27078628540039
			]
		},
		{
			"mesh":9,
			"name":"bush",
			"scale":[
				4.770712375640869,
				4.770712375640869,
				4.770712375640869
			],
			"translation":[
				34.78950500488281,
				3.048156976699829,
				56.76490783691406
			]
		},
		{
			"mesh":10,
			"name":"shelf",
			"scale":[
				0.9567275643348694,
				0.43123936653137207,
				2.895570993423462
			],
			"translation":[
				-13.62708854675293,
				1.2010914087295532,
				13.059608459472656
			]
		},
		{
			"mesh":11,
			"name":"Cube",
			"rotation":[
				0,
				-0.7071068286895752,
				0,
				0.7071068286895752
			],
			"scale":[
				0.45456230640411377,
				1.5824165344238281,
				0.45456230640411377
			],
			"translation":[
				0,
				2.235374689102173,
				21.9537296295166
			]
		},
		{
			"mesh":12,
			"name":"Teapot",
			"rotation":[
				0,
				0.3826834261417389,
				0,
				0.9238795638084412
			],
			"scale":[
				0.6898484230041504,
				0.6898484230041504,
				0.6898484230041504
			],
			"translation":[
				-13.265525817871094,
				4.199999809265137,
				-13.70030403137207
			]
		},
		{
			"mesh":13,
			"name":"eimer",
			"rotation":[
				0,
				-0.7593456506729126,
				0,
				0.6506875157356262
			],
			"translation":[
				11.659483909606934,
				1.3445005416870117,
				-12.590469360351562
			]
		}
	],
	"materials":[
		{
			"doubleSided":true,
			"name":"Material.002",
			"pbrMetallicRoughness":{
				"metallicFactor":0,
				"roughnessFactor":0.5
			}
		},
		{
			"doubleSided":true,
			"name":"Material.003",
			"pbrMetallicRoughness":{
				"metallicFactor":0,
				"roughnessFactor":0.5
			}
		},
		{
			"doubleSided":true,
			"name":"Material.001",
			"pbrMetallicRoughness":{
				"baseColorFactor":[
					0.800000011920929,
					0.800000011920929,
					0.800000011920929,
					1
				],
				"metallicFactor":0
			}
		},
		{
			"doubleSided":true,
			"name":"Material.004",
			"pbrMetallicRoughness":{
				"metallicFactor":0,
				"roughnessFactor":0.5
			}
		},
		{
			"doubleSided":true,
			"name":"Material.005",
			"pbrMetallicRoughness":{
				"metallicFactor":0,
				"roughnessFactor":0.5
			}
		},
		{
			"doubleSided":true,
			"name":"Material.006",
			"pbrMetallicRoughness":{
				"metallicFactor":0,
				"roughnessFactor":0.5
			}
		},
		{
			"doubleSided":true,
			"name":"Material.007",
			"pbrMetallicRoughness":{
				"metallicFactor":0,
				"roughnessFactor":0.5
			}
		},
		{
			"doubleSided":true,
			"name":"Material.008",
			"pbrMetallicRoughness":{
				"baseColorTexture":{
					"index":0
				},
				"metallicFactor":0,
				"roughnessFactor":0.5
			}
		},
		{
			"doubleSided":true,
			"name":"Material.009",
			"pbrMetallicRoughness":{
				"metallicFactor":0,
				"roughnessFactor":0.5
			}
		}
	],
	"meshes":[
		{
			"name":"Cube.006",
			"primitives":[
				{
					"attributes":{
						"POSITION":0,
						"NORMAL":1,
						"TEXCOORD_0":2
					},
					"indices":3,
					"material":0
				}
			]
		},
		{
			"name":"Wall",
			"primitives":[
				{
					"attributes":{
						"POSITION":4,
						"NORMAL":5,
						"TEXCOORD_0":6
					},
					"indices":7,
					"material":1
				}
			]
		},
		{
			"name":"Cube.008",
			"primitives":[
				{
					"attributes":{
						"POSITION":8,
						"NORMAL":9,
						"TEXCOORD_0":10
					},
					"indices":11,
					"material":2
				}
			]
		},
		{
			"name":"Plane",
			"primitives":[
				{
					"attributes":{
						"POSITION":12,
						"NORMAL":13,
						"TEXCOORD_0":14
					},
					"indices":15,
					"material":3
				}
			]
		},
		{
			"name":"Plane.001",
			"primitives":[
				{
					"attributes":{
						"POSITION":16,
						"NORMAL":17,
						"TEXCOORD_0":18
					},
					"indices":19,
					"material":4
				}
			]
		},
		{
			"name":"Icosphere",
			"primitives":[
				{
					"attributes":{
						"POSITION":20,
						"NORMAL":21,
						"TEXCOORD_0":22
					},
					"indices":23,
					"material":5
				}
			]
		},
		{
			"name":"Icosphere.001",
			"primitives":[
				{
					"attributes":{
						"POSITION":24,
						"NORMAL":25,
						"TEXCOORD_0":26
					},
					"indices":23,
					"material":5
				}
			]
		},
		{
			"name":"Icosphere.002",
			"primitives":[
				{
					"attributes":{
						"POSITION":27,
						"NORMAL":28,
						"TEXCOORD_0":29
					},
					"indices":23,
					"material":5
				}
			]
		},
		{
			"name":"Icosphere.003",
			"primitives":[
				{
					"attributes":{
						"POSITION":30,
						"NORMAL":31,
						"TEXCOORD_0":32
					},
					"indices":23,
					"material":5
				}
			]
		},
		{
			"name":"Icosphere.004",
			"primitives":[
				{
					"attributes":{
						"POSITION":33,
						"NORMAL":34,
						"TEXCOORD_0":35
					},
					"indices":23,
					"material":5
				}
			]
		},
		{
			"name":"Cube.012",
			"primitives":[
				{
					"attributes":{
						"POSITION":36,
						"NORMAL":37,
						"TEXCOORD_0":38
					},
					"indices":39,
					"material":6
				}
			]
		},
		{
			"name":"Cube.018",
			"primitives":[
				{
					"attributes":{
						"POSITION":40,
						"NORMAL":41,
						"TEXCOORD_0":42
					},
					"indices":43,
					"material":7
				}
			]
		},
		{
			"name":"Teapot",
			"primitives":[
				{
					"attributes":{
						"POSITION":44,
						"NORMAL":45
					},
					"indices":46
				}
			]
		},
		{
			"name":"Circle",
			"primitives":[
				{
					"attributes":{
						"POSITION":47,
						"NORMAL":48,
						"TEXCOORD_0":49
					},
					"indices":50,
					"material":8
				}
			]
		}
	],
	"textures":[
		{
			"sampler":0,
			"source":0
		}
	],
	"images":[
		{
			"mimeType":"image/png",
			"name":"Cube Base Color",
			"uri":"textures/Cube%20Base%20Color.png"
		}
	],
	"accessors":[
		{
			"bufferView":0,
			"componentType":5126,
			"count":24,
			"max":[
				1,
				1,
				1
			],
			"min":[
				-1,
				-1,
				-1
			],
			"type":"VEC3"
		},
		{
			"bufferView":1,
			"componentType":5126,
			"count":24,
			"type":"VEC3"
		},
		{
			"bufferView":2,
			"componentType":5126,
			"count":24,
			"type":"VEC2"
		},
		{
			"bufferView":3,
			"componentType":5123,
			"count":36,
			"type":"SCALAR"
		},
		{
			"bufferView":4,
			"componentType":5126,
			"count":17644,
			"max":[
				20.257234573364258,
				19.94972038269043,
				1.2999837398529053
			],
			"min":[
				-20.284542083740234,
				-2.377300262451172,
				-3.1628050804138184
			],
			"type":"VEC3"
		},
		{
			"bufferView":5,
			"componentType":5126,
			"count":17644,
			"type":"VEC3"
		},
		{
			"bufferView":6,
			"componentType":5126,
			"count":17644,
			"type":"VEC2"
		},
		{
			"bufferView":7,
			"componentType":5123,
			"count":28242,
			"type":"SCALAR"
		},
		{
			"bufferView":8,
			"componentType":5126,
			"count":480,
			"max":[
				1.983780860900879,
				3.329634428024292,
				76.45797729492188
			],
			"min":[
				-1.0470004081726074,
				-1.0306220054626465,
				-24.58129119873047
			],
			"type":"VEC3"
		},
		{
			"bufferView":9,
			"componentType":5126,
			"count":480,
			"type":"VEC3"
		},
		{
			"bufferView":10,
			"componentType":5126,
			"count":480,
			"type":"VEC2"
		},
		{
			"bufferView":11,
			"componentType":5123,
			"count":1065,
			"type":"SCALAR"
		},
		{
			"bufferView":12,
			"componentType":5126,
			"count":24,
			"max":[
				0.6076608896255493,
				1.005483627319336,
				1.4142074584960938
			],
			"min":[
				-0.8065528869628906,
				-1.0054837465286255,
				-1.4142189025878906
			],
			"type":"VEC3"
		},
		{
			"bufferView":13,
			"componentType":5126,
			"count":24,
			"type":"VEC3"
		},
		{
			"bufferView":14,
			"componentType":5126,
			"count":24,
			"type":"VEC2"
		},
		{
			"bufferView":15,
			"componentType":5123,
			"count":36,
			"type":"SCALAR"
		},
		{
			"bufferView":16,
			"componentType":5126,
			"count":4,
			"max":[
				1,
				0,
				1
			],
			"min":[
				-1,
				0,
				-1
			],
			"type":"VEC3"
		},
		{
			"bufferView":17,
			"componentType":5126,
			"count":4,
			"type":"VEC3"
		},
		{
			"bufferView":18,
			"componentType":5126,
			"count":4,
			"type":"VEC2"
		},
		{
			"bufferView":19,
			"componentType":5123,
			"count":6,
			"type":"SCALAR"
		},
		{
			"bufferView":20,
			"componentType":5126,
			"count":240,
			"max":[
				0.9510578513145447,
				1,
				0.9999999403953552
			],
			"min":[
				-0.9510578513145447,
				-1,
				-0.9999999403953552
			],
			"type":"VEC3"
		},
		{
			"bufferView":21,
			"componentType":5126,
			"count":240,
			"type":"VEC3"
		},
		{
			"bufferView":22,
			"componentType":5126,
			"count":240,
			"type":"VEC2"
		},
		{
			"bufferView":23,
			"componentType":5123,
			"count":240,
			"type":"SCALAR"
		},
		{
			"bufferView":24,
			"componentType":5126,
			"count":240,
			"max":[
				0.9510578513145447,
				1,
				0.9999999403953552
			],
			"min":[
				-0.9510578513145447,
				-1,
				-0.9999999403953552
			],
			"type":"VEC3"
		},
		{
			"bufferView":25,
			"componentType":5126,
			"count":240,
			"type":"VEC3"
		},
		{
			"bufferView":26,
			"componentType":5126,
			"count":240,
			"type":"VEC2"
		},
		{
			"bufferView":27,
			"componentType":5126,
			"count":240,
			"max":[
				0.9510578513145447,
				1,
				0.9999999403953552
			],
			"min":[
				-0.9510578513145447,
				-1,
				-0.9999999403953552
			],
			"type":"VEC3"
		},
		{
			"bufferView":28,
			"componentType":5126,
			"count":240,
			"type":"VEC3"
		},
		{
			"bufferView":29,
			"componentType":5126,
			"count":240,
			"type":"VEC2"
		},
		{
			"bufferView":30,
			"componentType":5126,
			"count":240,
			"max":[
				0.9510578513145447,
				1,
				0.9999999403953552
			],
			"min":[
				-0.9510578513145447,
				-1,
				-0.9999999403953552
			],
			"type":"VEC3"
		},
		{
			"bufferView":31,
			"componentType":5126,
			"count":240,
			"type":"VEC3"
		},
		{
			"bufferView":32,
			"componentType":5126,
			"count":240,
			"type":"VEC2"
		},
		{
			"bufferView":33,
			"componentType":5126,
			"count":240,
			"max":[
				0.9510578513145447,
				1,
				0.9999999403953552
			],
			"min":[
				-0.9510578513145447,
				-1,
				-0.9999999403953552
			],
			"type":"VEC3"
		},
		{
			"bufferView":34,
			"componentType":5126,
			"count":240,
			"type":"VEC3"
		},
		{
			"bufferView":35,
			"componentType":5126,
			"count":240,
			"type":"VEC2"
		},
		{
			"bufferView":36,
			"componentType":5126,
			"count":1632,
			"max":[
				1,
				28.519742965698242,
				1.242631435394287
			],
			"min":[
				-1,
				-1,
				-10.658273696899414
			],
			"type":"VEC3"
		},
		{
			"bufferView":37,
			"componentType":5126,
			"count":1632,
			"type":"VEC3"
		},
		{
			"bufferView":38,
			"componentType":5126,
			"count":1632,
			"type":"VEC2"
		},
		{
			"bufferView":39,
			"componentType":5123,
			"count":3096,
			"type":"SCALAR"
		},
		{
			"bufferView":40,
			"componentType":5126,
			"count":3204,
			"max":[
				3.716766357421875,
				1.377134919166565,
				9.54525375366211
			],
			"min":[
				-3.716766357421875,
				-1,
				-9.54525375366211
			],
			"type":"VEC3"
		},
		{
			"bufferView":41,
			"componentType":5126,
			"count":3204,
			"type":"VEC3"
		},
		{
			"bufferView":42,
			"componentType":5126,
			"count":3204,
			"type":"VEC2"
		},
		{
			"bufferView":43,
			"componentType":5123,
			"count":5916,
			"type":"SCALAR"
		},
		{
			"bufferView":44,
			"componentType":5126,
			"count":3084,
			"max":[
				3.434000015258789,
				3.1500000953674316,
				2
			],
			"min":[
				-3,
				0,
				-2
			],
			"type":"VEC3"
		},
		{
			"bufferView":45,
			"componentType":5126,
			"count":3084,
			"type":"VEC3"
		},
		{
			"bufferView":46,
			"componentType":5123,
			"count":4680,
			"type":"SCALAR"
		},
		{
			"bufferView":47,
			"componentType":5126,
			"count":2444,
			"max":[
				1.6250381469726562,
				4.6505231857299805,
				1.6250381469726562
			],
			"min":[
				-1.6250381469726562,
				0,
				-1.6250381469726562
			],
			"type":"VEC3"
		},
		{
			"bufferView":48,
			"componentType":5126,
			"count":2444,
			"type":"VEC3"
		},
		{
			"bufferView":49,
			"componentType":5126,
			"count":2444,
			"type":"VEC2"
		},
		{
			"bufferView":50,
			"componentType":5123,
			"count":4260,
			"type":"SCALAR"
		}
	],
	"bufferViews":[
		{
			"buffer":0,
			"byteLength":288,
			"byteOffset":0,
			"target":34962
		},
		{
			"buffer":0,
			"byteLength":288,
			"byteOffset":288,
			"target":34962
		},
		{
			"buffer":0,
			"byteLength":192,
			"byteOffset":576,
			"target":34962
		},
		{
			"buffer":0,
			"byteLength":72,
			"byteOffset":768,
			"target":34963
		},
		{
			"buffer":0,
			"byteLength":211728,
			"byteOffset":840,
			"target":34962
		},
		{
			"buffer":0,
			"byteLength":211728,
			"byteOffset":212568,
			"target":34962
		},
		{
			"buffer":0,
			"byteLength":141152,
			"byteOffset":424296,
			"target":34962
		},
		{
			"buffer":0,
			"byteLength":56484,
			"byteOffset":565448,
			"target":34963
		},
		{
			"buffer":0,
			"byteLength":5760,
			"byteOffset":621932,
			"target":34962
		},
		{
			"buffer":0,
			"byteLength":5760,
			"byteOffset":627692,
			"target":34962
		},
		{
			"buffer":0,
			"byteLength":3840,
			"byteOffset":633452,
			"target":34962
		},
		{
			"buffer":0,
			"byteLength":2130,
			"byteOffset":637292,
			"target":34963
		},
		{
			"buffer":0,
			"byteLength":288,
			"byteOffset":639424,
			"target":34962
		},
		{
			"buffer":0,
			"byteLength":288,
			"byteOffset":639712,
			"target":34962
		},
		{
			"buffer":0,
			"byteLength":192,
			"byteOffset":640000,
			"target":34962
		},
		{
			"buffer":0,
			"byteLength":72,
			"byteOffset":640192,
			"target":34963
		},
		{
			"buffer":0,
			"byteLength":48,
			"byteOffset":640264,
			"target":34962
		},
		{
			"buffer":0,
			"byteLength":48,
			"byteOffset":640312,
			"target":34962
		},
		{
			"buffer":0,
			"byteLength":32,
			"byteOffset":640360,
			"target":34962
		},
		{
			"buffer":0,
			"byteLength":12,
			"byteOffset":640392,
			"target":34963
		},
		{
			"buffer":0,
			"byteLength":2880,
			"byteOffset":640404,
			"target":34962
		},
		{
			"buffer":0,
			"byteLength":2880,
			"byteOffset":643284,
			"target":34962
		},
		{
			"buffer":0,
			"byteLength":1920,
			"byteOffset":646164,
			"target":34962
		},
		{
			"buffer":0,
			"byteLength":480,
			"byteOffset":648084,
			"target":34963
		},
		{
			"buffer":0,
			"byteLength":2880,
			"byteOffset":648564,
			"target":34962
		},
		{
			"buffer":0,
			"byteLength":2880,
			"byteOffset":651444,
			"target":34962
		},
		{
			"buffer":0,
			"byteLength":1920,
			"byteOffset":654324,
			"target":34962
		},
		{
			"buffer":0,
			"byteLength":2880,
			"byteOffset":656244,
			"target":34962
		},
		{
			"buffer":0,
			"byteLength":2880,
			"byteOffset":659124,
			"target":34962
		},
		{
			"buffer":0,
			"byteLength":1920,
			"byteOffset":662004,
			"target":34962
		},
		{
			"buffer":0,
			"byteLength":2880,
			"byteOffset":663924,
			"target":34962
		},
		{
			"buffer":0,
			"byteLength":2880,
			"byteOffset":666804,
			"target":34962
		},
		{
			"buffer":0,
			"byteLength":1920,
			"byteOffset":669684,
			"target":34962
		},
		{
			"buffer":0,
			"byteLength":2880,
			"byteOffset":671604,
			"target":34962
		},
		{
			"buffer":0,
			"byteLength":2880,
			"byteOffset":674484,
			"target":34962
		},
		{
			"buffer":0,
			"byteLength":1920,
			"byteOffset":677364,
			"target":34962
		},
		{
			"buffer":0,
			"byteLength":19584,
			"byteOffset":679284,
			"target":34962
		},
		{
			"buffer":0,
			"byteLength":19584,
			"byteOffset":698868,
			"target":34962
		},
		{
			"buffer":0,
			"byteLength":13056,
			"byteOffset":718452,
			"target":34962
		},
		{
			"buffer":0,
			"byteLength":6192,
			"byteOffset":731508,
			"target":34963
		},
		{
			"buffer":0,
			"byteLength":38448,
			"byteOffset":737700,
			"target":34962
		},
		{
			"buffer":0,
			"byteLength":38448,
			"byteOffset":776148,
			"target":34962
		},
		{
			"buffer":0,
			"byteLength":25632,
			"byteOffset":814596,
			"target":34962
		},
		{
			"buffer":0,
			"byteLength":11832,
			"byteOffset":840228,
			"target":34963
		},
		{
			"buffer":0,
			"byteLength":37008,
			"byteOffset":852060,
			"target":34962
		},
		{
			"buffer":0,
			"byteLength":37008,
			"byteOffset":889068,
			"target":34962
		},
		{
			"buffer":0,
			"byteLength":9360,
			"byteOffset":926076,
			"target":34963
		},
		{
			"buffer":0,
			"byteLength":29328,
			"byteOffset":935436,
			"target":34962
		},
		{
			"buffer":0,
			"byteLength":29328,
			"byteOffset":964764,
			"target":34962
		},
		{
			"buffer":0,
			"byteLength":19552,
			"byteOffset":994092,
			"target":34962
		},
		{
			"buffer":0,
			"byteLength":8520,
			"byteOffset":1013644,
			"target":34963
		}
	],
	"samplers":[
		{
			"magFilter":9729,
			"minFilter":9987
		}
	],
	"buffers":[
		{
			"byteLength":1022164,
			"uri":"house.bin"
		}
	]
}
